# xmcd
#
# Track frame offsets:
#	150
#	13179
#	28954
#	42875
#	61295
#	77051
#	89183
#	102756
#	118708
#	135579
#	150505
#
# Disc length: 2226 seconds
#
# Revision: 1
# Processed by: cddbd v1.5.2PL0 Copyright (c) Steve Scherf et al.
# Submitted via: audiograbber 1.83.01
#
DISCID=8d08b00b
DTITLE=Mac McAnally - Down By The River
DYEAR=2009
DGENRE=Country
TTITLE0=Blame It On New Orleans
TTITLE1=Down By The River
TTITLE2=If You Hang Around Long Enough
TTITLE3=On Account Of You
TTITLE4=(Nothing Like A) Sunny Day
TTITLE5=Over And Out
TTITLE6=You First
TTITLE7=Unresolved
TTITLE8=Bound To Get Down
TTITLE9=Big Disappointment
TTITLE10=Until Then
EXTD=
EXTT0=
EXTT1=
EXTT2=
EXTT3=
EXTT4=
EXTT5=
EXTT6=
EXTT7=
EXTT8=
EXTT9=
EXTT10=
PLAYORDER=
